<svg xmlns="http://www.w3.org/2000/svg" viewBox="0 0 342 342"><defs><style>.a{fill:#603913;}</style></defs><title>sketchClub_logo_brown</title><path class="a" d="M215.19,250.29a5.35,5.35,0,0,0-3.13,1.07c-2.35,1.92-2.63,5.12-2.63,7.89,0,2.56.28,6,2.42,7.68a5.33,5.33,0,0,0,3.27,1.14,5.48,5.48,0,0,0,3.7-1.56c1.21-1.28,2-3.55,2-7.25,0-2.27-.21-4.9-1.56-6.82A5,5,0,0,0,215.19,250.29Z" transform="translate(-27.05 -26.99)"/><path class="a" d="M195.19,184.49a4.93,4.93,0,0,0-4.83-3.48,5.71,5.71,0,0,0-2.27.57c-2.7,1.21-3.06,4.19-3.2,5h10.66A11.24,11.24,0,0,0,195.19,184.49Z" transform="translate(-27.05 -26.99)"/><path class="a" d="M198,27A171,171,0,1,0,369,198,171,171,0,0,0,198,27Zm-8,144.71c2.49,0,10,.36,15.35,6.11a18.19,18.19,0,0,1,3.91,6.82,31.57,31.57,0,0,1,1.07,9.67H184.74a11.77,11.77,0,0,0,.36,2.84,5.71,5.71,0,0,0,5.83,4.05,5.85,5.85,0,0,0,4.19-1.42,10.17,10.17,0,0,0,2.49-3.34l12,5a15.77,15.77,0,0,1-1.78,2.49,22.12,22.12,0,0,1-6.75,5.26,25.39,25.39,0,0,1-10.87,2.35,22.7,22.7,0,0,1-8.74-1.56c-7.61-3.13-11.66-10.52-11.66-18.55a19.7,19.7,0,0,1,5.61-14.36C180.69,172.06,188,171.7,190.07,171.7Zm-47.27-42.26V120h2.12v13.25a6.86,6.86,0,0,0,.68,3.36,4.25,4.25,0,0,0,2,1.77,8.41,8.41,0,0,0,3.76.78c.58,0,3.41,0,5-1.71,1.29-1.39,1.29-3.21,1.29-4.86V120h2.15v9.29c0,1.42,0,2.81-.06,4.22a7.33,7.33,0,0,1-1.77,5.15c-1,1.07-3,2.29-6.59,2.29a10.35,10.35,0,0,1-5.82-1.59,6.79,6.79,0,0,1-1.64-1.68C142.71,135.78,142.81,133.7,142.81,129.44ZM118.34,120h14.85v1.71H120.43v6.92h11.45v1.68H120.43v10.13h-2.09Zm-12.77,12.93c-.77-1.1-2.06-1.59-4.69-2.23a29.37,29.37,0,0,1-5-1.39,4.9,4.9,0,0,1-3.28-4.54,4.41,4.41,0,0,1,1.09-3c2-2.29,5.79-2.26,6.4-2.26a8.55,8.55,0,0,1,6.49,2.37,6.75,6.75,0,0,1,1.32,2.11l-2,1a5.59,5.59,0,0,0-.93-1.77,6,6,0,0,0-5-2.08,7,7,0,0,0-4.28,1.3,3.08,3.08,0,0,0-.39,4.25c1,1.19,2.67,1.56,4.15,1.91,2.12.52,5,1,6.72,2.31a4.89,4.89,0,0,1,2.12,4,5.47,5.47,0,0,1-2.8,4.66,10,10,0,0,1-5.66,1.45c-4.34,0-7.52-1.68-8.46-5.67l2.15-1a4.9,4.9,0,0,0,.51,2.29c.64,1.27,2.35,2.69,5.79,2.69a10.15,10.15,0,0,0,2.57-.29c2.09-.58,3.7-2,3.7-4.05A3.37,3.37,0,0,0,105.57,132.92Zm-7.51,63.73c.71.64,1.35,1.21,2.06,1.78a17,17,0,0,0,9.31,3.13,6.09,6.09,0,0,0,2.42-.43,2.3,2.3,0,0,0,1.42-1.92,1.44,1.44,0,0,0-.28-.85c-.92-1.42-2.56-1.28-5.33-1.78a56,56,0,0,1-7.25-1.85c-3.41-1.14-6-2.49-7.68-6a10.51,10.51,0,0,1-1-4.41,11.72,11.72,0,0,1,2.13-6.54c2.13-3,6.33-6,14.57-6,4.41,0,10,.92,14,3A23.6,23.6,0,0,1,126,177.1l-7.89,7.18c-1.07-.71-5-3.55-9.45-3.55a5.33,5.33,0,0,0-2.06.36,1.85,1.85,0,0,0-1.07,1.56,1.56,1.56,0,0,0,1,1.42,21.54,21.54,0,0,0,3.84,1.07c5.4,1.35,8.53,1.85,10.88,3.06a10.55,10.55,0,0,1,5.83,9.6,11.83,11.83,0,0,1-1.49,6c-4.19,7.61-14,7.75-16,7.75A29.86,29.86,0,0,1,93.86,207c-1.42-.85-2.7-1.92-4.05-2.91Zm29.36,75.18c-2.2,2.84-7.46,7.32-16.63,7.32a20.11,20.11,0,0,1-8.39-1.56c-10.52-4.41-11.23-15.14-11.23-18.48a24.56,24.56,0,0,1,1.21-7.39c4.05-11.94,15.64-12.44,19.33-12.44,6.47,0,10.31,2,12.58,3.55a20.67,20.67,0,0,1,3.55,3.27,23.42,23.42,0,0,1,1.85,2.77l-11.09,6.25a14.86,14.86,0,0,0-.71-1.92,6.07,6.07,0,0,0-5.62-3.63,5.4,5.4,0,0,0-3.13.92c-3.55,2.42-3.48,8.46-3.48,9s-.07,4.19,1.71,6.4a4.32,4.32,0,0,0,2.06,1.49,7.25,7.25,0,0,0,2.63.57c4.76-.07,6.18-5.4,6.47-6.26l11.23,6.18A21.1,21.1,0,0,1,127.41,271.83Zm19.69,5.9H132.39V227.54H147.1Zm-2.56-77.95v10.31H129.9V159.9h14.64v23.88l10-10.52h17.84l-14,13.29L173,210.08h-16.7l-8-14Zm46.34,77.95H177v-5.4a8,8,0,0,1-2.49,3.27c-1.71,1.42-4.55,3.06-9.67,3.06-1.35,0-6.11-.07-9.74-3.13a11.58,11.58,0,0,1-3.55-6,21.31,21.31,0,0,1-.64-6.25V240.91h14.71v20c0,1.71-.14,6,5.33,6a5.29,5.29,0,0,0,3.77-1.28c1.71-1.78,1.49-4.9,1.49-5.26V240.91h14.71Zm36-1.28a16.19,16.19,0,0,1-8.32,2.2,14,14,0,0,1-7.68-2.06,10.8,10.8,0,0,1-1.56-1.56v2.7H195.22V227.54h14.57l.07,15.92a14.51,14.51,0,0,1,1.92-1.63,13.29,13.29,0,0,1,7.39-2,14.81,14.81,0,0,1,11.44,4.9c2.2,2.42,4.62,6.4,4.62,13.79C235.24,260.6,235.1,271.47,226.92,276.45Zm9.79-66.65a72.73,72.73,0,0,1-9.24.78c-7.75,0-10.66-3-11.73-6.68a15.52,15.52,0,0,1-.43-4l.21-17.84h-5v-8h5.12l.14-11.59h14.71l-.07,11.59h6.26v8h-6.4L230,196.22c0,1.49.21,3.84,4.05,3.84a10.29,10.29,0,0,0,2.63-.28Zm38-5.62c-2.2,2.84-7.46,7.32-16.63,7.32a20.1,20.1,0,0,1-8.39-1.56c-10.52-4.41-11.23-15.14-11.23-18.48a24.53,24.53,0,0,1,1.21-7.39c4.05-11.94,15.64-12.44,19.33-12.44,6.47,0,10.31,2,12.58,3.55a20.67,20.67,0,0,1,3.55,3.27,23.28,23.28,0,0,1,1.85,2.77l-11.09,6.25a14.84,14.84,0,0,0-.71-1.92,6.06,6.06,0,0,0-5.61-3.63,5.4,5.4,0,0,0-3.13.92c-3.55,2.42-3.48,8.46-3.48,9s-.07,4.19,1.71,6.4a4.31,4.31,0,0,0,2.06,1.49,7.26,7.26,0,0,0,2.63.57c4.76-.07,6.18-5.4,6.47-6.26L277,200.28A21,21,0,0,1,274.69,204.18Zm29.93,5.9V189a6.47,6.47,0,0,0-.21-1.92c-.28-1.42-1.42-3.34-5-3.34-1.14,0-4.34.14-5.19,3.41a7.49,7.49,0,0,0-.21,2.13v20.76H279.31V159.9h14.57V177a16.91,16.91,0,0,1,1.63-1.85c1.42-1.35,4.76-3.41,10.09-3.41,3.55,0,7.61,1.07,10.24,3.7a10.91,10.91,0,0,1,3,5.9,21.6,21.6,0,0,1,.43,4.76v24Z" transform="translate(-27.05 -26.99)"/></svg>